# xmcd CD database file
#
# Track frame offsets:
#	150
#	23175
#	41807
#	61015
#	81105
#	101027
#	120027
#	138120
#	155942
#	172927
#	190350
#	210075
#	230350
#
# Disc length: 3325 seconds
#
# Revision: 0
# Processed by: cddbd v1.5.2PL0 Copyright (c) Steve Scherf et al.
# Submitted via: CdAid (MTCDDB.DLL V2003.12.21)
#
DISCID=9d0cfb0d
DTITLE=Various Artist - Black Hits
DYEAR=2006
DGENRE=Country
TTITLE0=Problems
TTITLE1=Get Away
TTITLE2=Hip Hoperia
TTITLE3=Change Like The Weather
TTITLE4=Cease and Seckle
TTITLE5=Mad Cow
TTITLE6=Fantasy
TTITLE7=No Diggity
TTITLE8=Ready Or Not
TTITLE9=Twisted
TTITLE10=Loungin'
TTITLE11=If I Ruled The World
TTITLE12=We Love The Hotties
EXTD=ID3G:   2 YEAR: 2006
EXTT0=
EXTT1=
EXTT2=
EXTT3=
EXTT4=
EXTT5=
EXTT6=
EXTT7=
EXTT8=
EXTT9=
EXTT10=
EXTT11=
EXTT12=
PLAYORDER=
